<svg width="233" height="47" viewBox="0 0 233 47" fill="none" xmlns="http://www.w3.org/2000/svg">
<path d="M34.6783 12.2921L23.038 0.722656L0 23.8616H6.54765L23.038 7.47152L41.711 25.7899C42.4385 26.5036 44.0258 26.4505 44.8635 25.5488C45.6988 24.6499 45.591 23.1385 44.8635 22.4154L39.5284 17.1128V9.6408C39.5284 8.67667 38.3162 7.71255 37.1033 7.71255C35.8905 7.71255 34.6783 8.67667 34.6783 9.6408V12.2921Z" fill="#D41117"/>
<path d="M6.54765 23.8616H0L23.038 47.0006L39.7709 30.3695L23.038 13.9794L13.0953 23.8616L21.8255 32.5387C22.553 33.2524 24.1403 33.1993 24.9781 32.2977C25.8133 31.3987 25.7056 29.8874 24.9781 29.1643L19.643 23.8616L23.038 20.4872L33.2233 30.3695L23.038 40.2517L6.54765 23.8616Z" fill="#144C99"/>
<path d="M225.92 37.2835C224.382 37.2835 223.15 36.978 222.223 36.367C221.296 35.7561 220.622 34.8923 220.2 33.7756C219.8 32.6379 219.6 31.3106 219.6 29.7937C219.6 28.9299 219.674 28.1714 219.821 27.5183C219.969 26.8652 220.179 26.2963 220.453 25.8117C220.748 25.3061 221.085 24.8742 221.464 24.516C221.865 24.1368 222.297 23.7997 222.76 23.5047C221.917 22.9359 221.233 22.1985 220.706 21.2926C220.179 20.3655 219.916 19.1962 219.916 17.7847C219.916 16.4363 220.127 15.267 220.548 14.2768C220.969 13.2865 221.622 12.5281 222.507 12.0014C223.413 11.4536 224.551 11.1797 225.92 11.1797C227.29 11.1797 228.406 11.4536 229.27 12.0014C230.155 12.5281 230.808 13.2865 231.23 14.2768C231.651 15.267 231.862 16.4363 231.862 17.7847C231.862 19.2173 231.598 20.3866 231.072 21.2926C230.566 22.1985 229.881 22.9359 229.017 23.5047C229.481 23.7997 229.902 24.1368 230.282 24.516C230.682 24.8742 231.019 25.3061 231.293 25.8117C231.588 26.2963 231.809 26.8652 231.957 27.5183C232.125 28.1714 232.209 28.9299 232.209 29.7937C232.209 31.3106 231.999 32.6379 231.577 33.7756C231.177 34.8923 230.513 35.7561 229.586 36.367C228.68 36.978 227.458 37.2835 225.92 37.2835ZM225.92 34.5973C226.742 34.5973 227.374 34.3866 227.817 33.9652C228.259 33.5439 228.554 32.975 228.701 32.2587C228.87 31.5424 228.954 30.7418 228.954 29.8569C228.954 29.0563 228.859 28.3084 228.67 27.6131C228.501 26.8968 228.196 26.3174 227.753 25.8749C227.311 25.4114 226.7 25.1797 225.92 25.1797C225.141 25.1797 224.519 25.4009 224.056 25.8433C223.613 26.2858 223.297 26.8652 223.108 27.5815C222.918 28.2768 222.823 29.0352 222.823 29.8569C222.823 30.7418 222.908 31.5424 223.076 32.2587C223.245 32.975 223.55 33.5439 223.993 33.9652C224.456 34.3866 225.099 34.5973 225.92 34.5973ZM225.92 21.9562C226.637 21.9351 227.174 21.7139 227.532 21.2926C227.911 20.8712 228.175 20.3339 228.322 19.6808C228.47 19.0066 228.543 18.3114 228.543 17.595C228.543 16.5416 228.354 15.6462 227.975 14.9088C227.595 14.1714 226.911 13.8027 225.92 13.8027C224.93 13.8027 224.235 14.1714 223.835 14.9088C223.434 15.6462 223.234 16.5416 223.234 17.595C223.234 18.3114 223.308 19.0066 223.455 19.6808C223.603 20.3339 223.866 20.8712 224.245 21.2926C224.646 21.7139 225.204 21.9351 225.92 21.9562Z" fill="#D41117"/>
<path d="M210.796 37.2835C209.406 37.2835 208.247 37.0202 207.32 36.4935C206.393 35.9667 205.698 35.2083 205.234 34.2181C204.771 33.2278 204.539 32.0585 204.539 30.7102V29.8569H207.889C207.889 29.9412 207.889 30.036 207.889 30.1413C207.889 30.2256 207.889 30.3204 207.889 30.4257C207.91 31.1842 207.994 31.8689 208.142 32.4799C208.31 33.0909 208.595 33.5755 208.995 33.9336C209.416 34.2918 210.017 34.4709 210.796 34.4709C211.618 34.4709 212.24 34.2813 212.661 33.902C213.082 33.5017 213.367 32.9434 213.514 32.2271C213.662 31.5108 213.735 30.6891 213.735 29.7621C213.735 28.4137 213.483 27.3181 212.977 26.4754C212.492 25.6116 211.629 25.1376 210.386 25.0533C210.322 25.0322 210.238 25.0217 210.133 25.0217C210.048 25.0217 209.975 25.0217 209.912 25.0217V21.6402C209.975 21.6402 210.048 21.6402 210.133 21.6402C210.217 21.6402 210.291 21.6402 210.354 21.6402C211.555 21.598 212.419 21.282 212.945 20.6921C213.472 20.1022 213.735 19.1225 213.735 17.7531C213.735 16.5943 213.535 15.6673 213.135 14.972C212.756 14.2768 211.987 13.9291 210.828 13.9291C209.669 13.9291 208.9 14.3189 208.521 15.0984C208.142 15.8569 207.931 16.8366 207.889 18.0375C207.889 18.1217 207.889 18.2166 207.889 18.3219C207.889 18.4062 207.889 18.4904 207.889 18.5747H204.539V17.7214C204.539 16.352 204.771 15.1827 205.234 14.2135C205.698 13.2444 206.393 12.4965 207.32 11.9698C208.268 11.443 209.437 11.1797 210.828 11.1797C212.24 11.1797 213.409 11.443 214.336 11.9698C215.263 12.4965 215.958 13.2549 216.422 14.2452C216.885 15.2143 217.117 16.3836 217.117 17.7531C217.117 19.2911 216.78 20.5236 216.106 21.4506C215.453 22.3776 214.568 23.0096 213.451 23.3467C214.231 23.5785 214.884 23.9788 215.41 24.5476C215.958 25.1165 216.38 25.8433 216.674 26.7282C216.969 27.592 217.117 28.6033 217.117 29.7621C217.117 31.279 216.906 32.6063 216.485 33.744C216.064 34.8607 215.389 35.735 214.462 36.367C213.535 36.978 212.313 37.2835 210.796 37.2835Z" fill="#D41117"/>
<path d="M188.361 37.0004V11.4022H191.521V29.1313L199.011 11.4022H201.571V37.0004H198.442V18.9869L191.016 37.0004H188.361ZM195.282 9.41125C193.765 9.41125 192.691 9.00041 192.059 8.17874C191.448 7.35707 191.142 6.33525 191.142 5.11328H193.102C193.123 5.87175 193.291 6.46166 193.607 6.88303C193.944 7.28333 194.503 7.48349 195.282 7.48349C196.083 7.48349 196.641 7.2728 196.957 6.85143C197.294 6.43006 197.463 5.85068 197.463 5.11328H199.454C199.454 6.33525 199.138 7.35707 198.506 8.17874C197.895 9.00041 196.82 9.41125 195.282 9.41125Z" fill="#144C99"/>
<path d="M178.183 37.2835C176.455 37.2835 175.075 36.9464 174.043 36.2722C173.011 35.598 172.273 34.6394 171.831 33.3964C171.388 32.1323 171.167 30.6575 171.167 28.972V19.27C171.167 17.5845 171.388 16.1413 171.831 14.9404C172.294 13.7184 173.032 12.7914 174.043 12.1594C175.075 11.5062 176.455 11.1797 178.183 11.1797C179.911 11.1797 181.28 11.5062 182.291 12.1594C183.303 12.8125 184.03 13.7395 184.472 14.9404C184.935 16.1413 185.167 17.5845 185.167 19.27V29.0036C185.167 30.668 184.935 32.1217 184.472 33.3648C184.03 34.6078 183.303 35.577 182.291 36.2722C181.28 36.9464 179.911 37.2835 178.183 37.2835ZM178.183 34.4709C179.131 34.4709 179.847 34.2813 180.332 33.902C180.817 33.5017 181.143 32.954 181.312 32.2587C181.48 31.5424 181.565 30.7102 181.565 29.7621V18.5431C181.565 17.595 181.48 16.7839 181.312 16.1097C181.143 15.4145 180.817 14.8877 180.332 14.5296C179.847 14.1503 179.131 13.9607 178.183 13.9607C177.235 13.9607 176.508 14.1503 176.002 14.5296C175.518 14.8877 175.191 15.4145 175.023 16.1097C174.854 16.7839 174.77 17.595 174.77 18.5431V29.7621C174.77 30.7102 174.854 31.5424 175.023 32.2587C175.191 32.954 175.518 33.5017 176.002 33.902C176.508 34.2813 177.235 34.4709 178.183 34.4709Z" fill="#144C99"/>
<path d="M156.773 37.0005V11.4023H163.125C164.663 11.4023 165.885 11.6868 166.791 12.2556C167.718 12.8034 168.392 13.604 168.814 14.6574C169.235 15.7108 169.446 16.9855 169.446 18.4814C169.446 19.8297 169.204 20.999 168.719 21.9893C168.256 22.9795 167.56 23.7485 166.633 24.2963C165.706 24.823 164.547 25.0863 163.157 25.0863H160.344V37.0005H156.773ZM160.344 22.5265H161.988C163.02 22.5265 163.831 22.4106 164.421 22.1789C165.011 21.9471 165.432 21.5468 165.685 20.978C165.938 20.388 166.064 19.5664 166.064 18.513C166.064 17.291 165.97 16.3534 165.78 15.7003C165.611 15.0472 165.243 14.5942 164.674 14.3414C164.105 14.0886 163.22 13.9622 162.019 13.9622H160.344V22.5265Z" fill="#144C99"/>
<path d="M146.847 37.0005V14.057H142.518V11.4023H154.621V14.057H150.418V37.0005H146.847Z" fill="#144C99"/>
<path d="M134.502 37.2835C132.69 37.2835 131.278 36.9043 130.267 36.1458C129.277 35.3874 128.581 34.3655 128.181 33.0804C127.802 31.7952 127.612 30.3625 127.612 28.7824V19.744C127.612 18.0164 127.802 16.51 128.181 15.2248C128.581 13.9397 129.277 12.9494 130.267 12.2542C131.278 11.5379 132.69 11.1797 134.502 11.1797C136.103 11.1797 137.367 11.4746 138.294 12.0646C139.242 12.6545 139.916 13.4972 140.317 14.5928C140.738 15.6883 140.949 17.0051 140.949 18.5431V20.5657H137.567V18.7643C137.567 17.8163 137.514 16.9841 137.409 16.2677C137.325 15.5303 137.072 14.9615 136.651 14.5612C136.229 14.1609 135.524 13.9607 134.533 13.9607C133.522 13.9607 132.785 14.1819 132.321 14.6244C131.858 15.0458 131.552 15.6567 131.405 16.4573C131.278 17.2369 131.215 18.1534 131.215 19.2068V29.3512C131.215 30.6364 131.32 31.6582 131.531 32.4167C131.742 33.1541 132.089 33.6808 132.574 33.9968C133.059 34.3129 133.712 34.4709 134.533 34.4709C135.502 34.4709 136.198 34.2602 136.619 33.8388C137.04 33.3964 137.304 32.7959 137.409 32.0375C137.514 31.279 137.567 30.3941 137.567 29.3828V27.4867H140.949V29.3828C140.949 30.9419 140.759 32.3219 140.38 33.5228C140.001 34.7026 139.347 35.6297 138.42 36.3038C137.493 36.957 136.187 37.2835 134.502 37.2835Z" fill="#144C99"/>
<path d="M117.908 37.2835C116.181 37.2835 114.801 36.9464 113.768 36.2722C112.736 35.598 111.998 34.6394 111.556 33.3964C111.114 32.1323 110.892 30.6575 110.892 28.972V19.27C110.892 17.5845 111.114 16.1413 111.556 14.9404C112.019 13.7184 112.757 12.7914 113.768 12.1594C114.801 11.5062 116.181 11.1797 117.908 11.1797C119.636 11.1797 121.005 11.5062 122.016 12.1594C123.028 12.8125 123.755 13.7395 124.197 14.9404C124.661 16.1413 124.892 17.5845 124.892 19.27V29.0036C124.892 30.668 124.661 32.1217 124.197 33.3648C123.755 34.6078 123.028 35.577 122.016 36.2722C121.005 36.9464 119.636 37.2835 117.908 37.2835ZM117.908 34.4709C118.856 34.4709 119.573 34.2813 120.057 33.902C120.542 33.5017 120.868 32.954 121.037 32.2587C121.205 31.5424 121.29 30.7102 121.29 29.7621V18.5431C121.29 17.595 121.205 16.7839 121.037 16.1097C120.868 15.4145 120.542 14.8877 120.057 14.5296C119.573 14.1503 118.856 13.9607 117.908 13.9607C116.96 13.9607 116.233 14.1503 115.728 14.5296C115.243 14.8877 114.916 15.4145 114.748 16.1097C114.579 16.7839 114.495 17.595 114.495 18.5431V29.7621C114.495 30.7102 114.579 31.5424 114.748 32.2587C114.916 32.954 115.243 33.5017 115.728 33.902C116.233 34.2813 116.96 34.4709 117.908 34.4709Z" fill="#D41117"/>
<path d="M95.1096 37.0005V11.4023H100.988C102.146 11.4023 103.147 11.5288 103.99 11.7816C104.854 12.0344 105.57 12.4242 106.139 12.9509C106.708 13.4776 107.129 14.1518 107.403 14.9735C107.677 15.7741 107.814 16.7221 107.814 17.8177C107.814 18.8711 107.677 19.7876 107.403 20.5671C107.15 21.3256 106.75 21.926 106.202 22.3685C105.675 22.8109 104.991 23.0953 104.148 23.2218C105.18 23.4535 106.013 23.8538 106.645 24.4227C107.277 24.9704 107.74 25.6868 108.035 26.5716C108.351 27.4355 108.509 28.4783 108.509 29.7003C108.509 30.7959 108.383 31.7966 108.13 32.7026C107.877 33.6085 107.477 34.3775 106.929 35.0096C106.402 35.6416 105.718 36.1367 104.875 36.4949C104.053 36.832 103.074 37.0005 101.936 37.0005H95.1096ZM98.6807 34.4407H101.083C102.684 34.4407 103.748 34.072 104.274 33.3346C104.822 32.5762 105.096 31.3647 105.096 29.7003C105.096 28.6258 104.949 27.7304 104.654 27.0141C104.38 26.2767 103.927 25.7289 103.295 25.3707C102.684 24.9915 101.852 24.8019 100.798 24.8019H98.6807V34.4407ZM98.6807 22.0841H100.798C101.809 22.0841 102.599 21.9471 103.168 21.6732C103.737 21.3783 104.137 20.9148 104.369 20.2827C104.601 19.6507 104.717 18.829 104.717 17.8177C104.717 16.6379 104.538 15.7846 104.18 15.2579C103.821 14.7312 103.263 14.4046 102.505 14.2782C101.746 14.1307 100.756 14.057 99.534 14.057H98.6807V22.0841Z" fill="#D41117"/>
<path d="M84.9316 37.2835C83.204 37.2835 81.824 36.9464 80.7916 36.2722C79.7593 35.598 79.0219 34.6394 78.5794 33.3964C78.137 32.1323 77.9158 30.6575 77.9158 28.972V19.27C77.9158 17.5845 78.137 16.1413 78.5794 14.9404C79.0429 13.7184 79.7803 12.7914 80.7916 12.1594C81.824 11.5062 83.204 11.1797 84.9316 11.1797C86.6592 11.1797 88.0286 11.5062 89.0399 12.1594C90.0512 12.8125 90.7781 13.7395 91.2205 14.9404C91.684 16.1413 91.9158 17.5845 91.9158 19.27V29.0036C91.9158 30.668 91.684 32.1217 91.2205 33.3648C90.7781 34.6078 90.0512 35.577 89.0399 36.2722C88.0286 36.9464 86.6592 37.2835 84.9316 37.2835ZM84.9316 34.4709C85.8797 34.4709 86.596 34.2813 87.0806 33.902C87.5651 33.5017 87.8917 32.954 88.0602 32.2587C88.2288 31.5424 88.3131 30.7102 88.3131 29.7621V18.5431C88.3131 17.595 88.2288 16.7839 88.0602 16.1097C87.8917 15.4145 87.5651 14.8877 87.0806 14.5296C86.596 14.1503 85.8797 13.9607 84.9316 13.9607C83.9835 13.9607 83.2566 14.1503 82.751 14.5296C82.2664 14.8877 81.9399 15.4145 81.7713 16.1097C81.6028 16.7839 81.5185 17.595 81.5185 18.5431V29.7621C81.5185 30.7102 81.6028 31.5424 81.7713 32.2587C81.9399 32.954 82.2664 33.5017 82.751 33.902C83.2566 34.2813 83.9835 34.4709 84.9316 34.4709Z" fill="#D41117"/>
<path d="M60.991 37.0005V11.4023H64.5621V22.4633H71.1354V11.4023H74.7065V37.0005H71.1354V25.0231H64.5621V37.0005H60.991Z" fill="#D41117"/>
</svg>
