<svg width="31" height="30" viewBox="0 0 31 30" fill="none" xmlns="http://www.w3.org/2000/svg">
<rect x="0.884521" width="30" height="30" rx="4" fill="#1C8ADB"/>
<path d="M25.3001 7.41797L7.1514 14.0369C6.70739 14.1988 6.73904 14.8371 7.19689 14.9543L11.4523 16.0437C11.6081 16.0836 11.7337 16.1988 11.7868 16.3506L13.4815 21.1926C13.5952 21.5173 14.0032 21.6211 14.2581 21.39L16.5229 19.3375C16.6849 19.1907 16.9256 19.1717 17.1086 19.2912L22.0339 22.5069C22.3151 22.6905 22.6931 22.5366 22.766 22.2088L25.9341 7.97408C26.0166 7.60336 25.6569 7.28784 25.3001 7.41797Z" fill="white" stroke="white" stroke-width="0.0961538"/>
<path d="M22.3706 10.1722L12.4434 15.8759C12.4037 15.8988 12.3856 15.9466 12.4002 15.99L13.6428 19.6748C13.675 19.7703 13.8137 19.7582 13.8289 19.6586L14.1964 17.2494C14.2 17.2262 14.2119 17.205 14.23 17.19L22.48 10.3295C22.5704 10.2543 22.4726 10.1136 22.3706 10.1722Z" fill="#1C8ADB" stroke="#1C8ADB" stroke-width="0.0961538"/>
</svg>
