<svg width="30" height="30" viewBox="0 0 30 30" fill="none" xmlns="http://www.w3.org/2000/svg">
<rect width="30" height="30" rx="4" fill="#4169E1"/>
<path d="M9.09569 10.0018H6.10319C5.76078 10.0018 5.53015 10.354 5.66484 10.6688C9.51896 19.6766 12.4892 19.9136 14.0384 20.2422C14.9417 20.4338 15.7038 20.377 16.1895 20.2764C16.4432 20.2238 16.5564 19.9514 16.5418 19.6926C16.4952 18.866 16.993 17.8864 17.3557 17.8864C17.6803 17.8864 19.0447 19.2954 19.808 20.1316C19.8999 20.2323 20.0297 20.2903 20.1659 20.2903H20.2403H24.0685C24.3584 20.2903 24.5755 20.035 24.4611 19.7686C23.8027 18.2363 21.3786 16.0232 21.2499 15.723C21.1345 15.4537 21.5544 14.9056 21.7788 14.6653C23.4528 13.0543 24.1174 11.4845 24.3104 10.5842C24.3669 10.3204 24.1529 10.098 23.8831 10.098H20.1998C19.994 10.098 19.8116 10.2292 19.742 10.4229C18.7182 13.2732 17.5985 14.3691 16.9954 14.6442C16.8637 14.7042 16.7153 14.6534 16.6677 14.5167C16.418 13.7985 16.4942 11.5933 16.595 10.1375C16.6144 9.8569 16.3933 9.61719 16.112 9.61719H15.8172H12.9326C12.4271 9.61719 12.1209 9.75893 11.9442 9.93064C11.7441 10.1251 11.9807 10.3622 12.2316 10.4843C12.452 10.5915 12.6116 10.7637 12.6994 10.8957C12.7285 10.9394 12.745 10.9907 12.7535 11.0424C13.063 12.931 12.8751 14.0081 12.6493 14.5099C12.5614 14.7052 12.3257 14.7324 12.1563 14.6014C10.7944 13.5475 9.9289 11.5446 9.57153 10.3634C9.50764 10.1522 9.3163 10.0018 9.09569 10.0018Z" fill="white" stroke="white" stroke-width="0.0961538" stroke-linejoin="round"/>
</svg>
