<svg width="31" height="30" viewBox="0 0 31 30" fill="none" xmlns="http://www.w3.org/2000/svg">
<rect x="0.769043" width="30" height="30" rx="4" fill="#29A71A"/>
<path fill-rule="evenodd" clip-rule="evenodd" d="M25.0479 14.9026C25.0479 20.0007 20.9152 24.1334 15.8172 24.1334C14.3239 24.1334 12.9134 23.7788 11.6654 23.1493C11.6454 23.1392 11.6225 23.1363 11.6007 23.1412L6.68199 24.2454C6.61428 24.2606 6.55325 24.2013 6.56656 24.1331L7.55563 19.0695C7.55971 19.0486 7.55673 19.027 7.54725 19.0079C6.93225 17.7714 6.58641 16.3774 6.58641 14.9026C6.58641 9.80463 10.7192 5.67188 15.8172 5.67188C20.9152 5.67188 25.0479 9.80463 25.0479 14.9026ZM15.8653 22.3065C19.9277 22.3065 23.221 19.0132 23.221 14.9507C23.221 10.8882 19.9277 7.59495 15.8653 7.59495C11.8028 7.59495 8.50948 10.8882 8.50948 14.9507C8.50948 16.3671 8.9098 17.69 9.60347 18.8124C9.61642 18.8333 9.62098 18.8584 9.61609 18.8825L9.06837 21.5815C9.05438 21.6505 9.11677 21.7106 9.18518 21.6941L11.7377 21.0777C11.7638 21.0714 11.7914 21.0764 11.8138 21.0912C12.9756 21.8593 14.3682 22.3065 15.8653 22.3065Z" fill="white"/>
<path d="M14.9518 15.8642C14.455 15.4315 13.471 14.4603 13.5095 14.0373C13.5576 13.5084 14.1345 13.1719 14.1826 12.8834C14.2306 12.595 13.4133 10.8642 13.221 10.5277C13.1144 10.341 12.6441 9.99881 11.971 10.768C11.298 11.5373 10.4326 13.1238 11.8268 14.9507C12.9422 16.4122 13.5415 17.034 13.7018 17.1622C13.8458 17.3085 14.7505 18.0119 16.3189 18.9712C18.2795 20.1703 19.7687 19.1464 20.4646 18.3978C21.1606 17.6493 20.7719 17.2167 20.5753 17.1297C20.2208 16.973 18.4152 16.3379 18.1332 16.4154C17.8512 16.4929 17.5757 17.1013 17.0546 17.2035C16.6377 17.2853 15.4333 16.3139 14.9518 15.8642Z" fill="white"/>
<path fill-rule="evenodd" clip-rule="evenodd" d="M25.0479 14.9026C25.0479 20.0007 20.9152 24.1334 15.8172 24.1334C14.3239 24.1334 12.9134 23.7788 11.6654 23.1493C11.6454 23.1392 11.6225 23.1363 11.6007 23.1412L6.68199 24.2454C6.61428 24.2606 6.55325 24.2013 6.56656 24.1331L7.55563 19.0695C7.55971 19.0486 7.55673 19.027 7.54725 19.0079C6.93225 17.7714 6.58641 16.3774 6.58641 14.9026C6.58641 9.80463 10.7192 5.67188 15.8172 5.67188C20.9152 5.67188 25.0479 9.80463 25.0479 14.9026ZM15.8653 22.3065C19.9277 22.3065 23.221 19.0132 23.221 14.9507C23.221 10.8882 19.9277 7.59495 15.8653 7.59495C11.8028 7.59495 8.50948 10.8882 8.50948 14.9507C8.50948 16.3671 8.9098 17.69 9.60347 18.8124C9.61642 18.8333 9.62098 18.8584 9.61609 18.8825L9.06837 21.5815C9.05438 21.6505 9.11677 21.7106 9.18518 21.6941L11.7377 21.0777C11.7638 21.0714 11.7914 21.0764 11.8138 21.0912C12.9756 21.8593 14.3682 22.3065 15.8653 22.3065Z" stroke="white" stroke-width="0.0961538"/>
<path d="M14.9518 15.8642C14.455 15.4315 13.471 14.4603 13.5095 14.0373C13.5576 13.5084 14.1345 13.1719 14.1826 12.8834C14.2306 12.595 13.4133 10.8642 13.221 10.5277C13.1144 10.341 12.6441 9.99881 11.971 10.768C11.298 11.5373 10.4326 13.1238 11.8268 14.9507C12.9422 16.4122 13.5415 17.034 13.7018 17.1622C13.8458 17.3085 14.7505 18.0119 16.3189 18.9712C18.2795 20.1703 19.7687 19.1464 20.4646 18.3978C21.1606 17.6493 20.7719 17.2167 20.5753 17.1297C20.2208 16.973 18.4152 16.3379 18.1332 16.4154C17.8512 16.4929 17.5757 17.1013 17.0546 17.2035C16.6377 17.2853 15.4333 16.3139 14.9518 15.8642Z" stroke="white" stroke-width="0.0961538"/>
</svg>
